<mxfile host="Electron" agent="Mozilla/5.0 (Windows NT 10.0; Win64; x64) AppleWebKit/537.36 (KHTML, like Gecko) draw.io/28.2.5 Chrome/138.0.7204.251 Electron/37.6.1 Safari/537.36" version="28.2.5">
  <diagram name="Page-1" id="2vPtys1CODCgNe1_TbOR">
    <mxGraphModel dx="772" dy="501" grid="1" gridSize="10" guides="1" tooltips="1" connect="1" arrows="1" fold="1" page="1" pageScale="1" pageWidth="1100" pageHeight="1700" math="0" shadow="0">
      <root>
        <mxCell id="0" />
        <mxCell id="1" parent="0" />
        <mxCell id="1eZ8WCxtHh6D6gsWzAZl-13" style="edgeStyle=orthogonalEdgeStyle;rounded=0;orthogonalLoop=1;jettySize=auto;html=1;exitX=0.5;exitY=1;exitDx=0;exitDy=0;" edge="1" parent="1" source="1eZ8WCxtHh6D6gsWzAZl-1" target="1eZ8WCxtHh6D6gsWzAZl-2">
          <mxGeometry relative="1" as="geometry" />
        </mxCell>
        <mxCell id="1eZ8WCxtHh6D6gsWzAZl-1" value="Bắt đầu chương trình" style="ellipse;whiteSpace=wrap;html=1;" vertex="1" parent="1">
          <mxGeometry x="320" y="40" width="120" height="80" as="geometry" />
        </mxCell>
        <mxCell id="1eZ8WCxtHh6D6gsWzAZl-14" style="edgeStyle=orthogonalEdgeStyle;rounded=0;orthogonalLoop=1;jettySize=auto;html=1;exitX=0.5;exitY=1;exitDx=0;exitDy=0;entryX=0.5;entryY=0;entryDx=0;entryDy=0;" edge="1" parent="1" source="1eZ8WCxtHh6D6gsWzAZl-2" target="1eZ8WCxtHh6D6gsWzAZl-3">
          <mxGeometry relative="1" as="geometry" />
        </mxCell>
        <mxCell id="1eZ8WCxtHh6D6gsWzAZl-2" value="Nhập ba số a,b ,c" style="shape=parallelogram;perimeter=parallelogramPerimeter;whiteSpace=wrap;html=1;fixedSize=1;" vertex="1" parent="1">
          <mxGeometry x="320" y="180" width="120" height="60" as="geometry" />
        </mxCell>
        <mxCell id="1eZ8WCxtHh6D6gsWzAZl-15" style="edgeStyle=orthogonalEdgeStyle;rounded=0;orthogonalLoop=1;jettySize=auto;html=1;exitX=0;exitY=0.5;exitDx=0;exitDy=0;entryX=0.5;entryY=0;entryDx=0;entryDy=0;" edge="1" parent="1" source="1eZ8WCxtHh6D6gsWzAZl-3" target="1eZ8WCxtHh6D6gsWzAZl-5">
          <mxGeometry relative="1" as="geometry" />
        </mxCell>
        <mxCell id="1eZ8WCxtHh6D6gsWzAZl-29" value="đúng" style="edgeLabel;html=1;align=center;verticalAlign=middle;resizable=0;points=[];" vertex="1" connectable="0" parent="1eZ8WCxtHh6D6gsWzAZl-15">
          <mxGeometry x="-0.1476" y="-2" relative="1" as="geometry">
            <mxPoint as="offset" />
          </mxGeometry>
        </mxCell>
        <mxCell id="1eZ8WCxtHh6D6gsWzAZl-16" style="edgeStyle=orthogonalEdgeStyle;rounded=0;orthogonalLoop=1;jettySize=auto;html=1;exitX=1;exitY=0.5;exitDx=0;exitDy=0;entryX=0.5;entryY=0;entryDx=0;entryDy=0;" edge="1" parent="1" source="1eZ8WCxtHh6D6gsWzAZl-3" target="1eZ8WCxtHh6D6gsWzAZl-6">
          <mxGeometry relative="1" as="geometry" />
        </mxCell>
        <mxCell id="1eZ8WCxtHh6D6gsWzAZl-30" value="sai" style="edgeLabel;html=1;align=center;verticalAlign=middle;resizable=0;points=[];" vertex="1" connectable="0" parent="1eZ8WCxtHh6D6gsWzAZl-16">
          <mxGeometry x="-0.2952" y="3" relative="1" as="geometry">
            <mxPoint as="offset" />
          </mxGeometry>
        </mxCell>
        <mxCell id="1eZ8WCxtHh6D6gsWzAZl-3" value="a=0?" style="rhombus;whiteSpace=wrap;html=1;" vertex="1" parent="1">
          <mxGeometry x="320" y="280" width="120" height="80" as="geometry" />
        </mxCell>
        <mxCell id="1eZ8WCxtHh6D6gsWzAZl-23" style="edgeStyle=orthogonalEdgeStyle;rounded=0;orthogonalLoop=1;jettySize=auto;html=1;exitX=0.5;exitY=1;exitDx=0;exitDy=0;entryX=0;entryY=1;entryDx=0;entryDy=0;" edge="1" parent="1" source="1eZ8WCxtHh6D6gsWzAZl-5" target="1eZ8WCxtHh6D6gsWzAZl-22">
          <mxGeometry relative="1" as="geometry" />
        </mxCell>
        <mxCell id="1eZ8WCxtHh6D6gsWzAZl-5" value="&lt;span style=&quot;font-family: Arial, sans-serif; font-size: 16px; text-align: start; white-space-collapse: preserve; background-color: rgb(255, 255, 255);&quot;&gt;bx + c = 0&lt;/span&gt;" style="rounded=0;whiteSpace=wrap;html=1;" vertex="1" parent="1">
          <mxGeometry x="160" y="360" width="120" height="80" as="geometry" />
        </mxCell>
        <mxCell id="1eZ8WCxtHh6D6gsWzAZl-17" style="edgeStyle=orthogonalEdgeStyle;rounded=0;orthogonalLoop=1;jettySize=auto;html=1;exitX=0.5;exitY=1;exitDx=0;exitDy=0;entryX=0.5;entryY=0;entryDx=0;entryDy=0;" edge="1" parent="1" source="1eZ8WCxtHh6D6gsWzAZl-6" target="1eZ8WCxtHh6D6gsWzAZl-7">
          <mxGeometry relative="1" as="geometry" />
        </mxCell>
        <mxCell id="1eZ8WCxtHh6D6gsWzAZl-6" value="&lt;span style=&quot;font-family: Arial, sans-serif; font-size: 16px; text-align: start; white-space-collapse: preserve; background-color: rgb(255, 255, 255);&quot;&gt; Δ = b² - 4ac&lt;/span&gt;" style="rounded=0;whiteSpace=wrap;html=1;" vertex="1" parent="1">
          <mxGeometry x="480" y="360" width="120" height="80" as="geometry" />
        </mxCell>
        <mxCell id="1eZ8WCxtHh6D6gsWzAZl-18" style="edgeStyle=orthogonalEdgeStyle;rounded=0;orthogonalLoop=1;jettySize=auto;html=1;exitX=0;exitY=0.5;exitDx=0;exitDy=0;entryX=0.5;entryY=0;entryDx=0;entryDy=0;" edge="1" parent="1" source="1eZ8WCxtHh6D6gsWzAZl-7" target="1eZ8WCxtHh6D6gsWzAZl-8">
          <mxGeometry relative="1" as="geometry" />
        </mxCell>
        <mxCell id="1eZ8WCxtHh6D6gsWzAZl-31" value="đúng" style="edgeLabel;html=1;align=center;verticalAlign=middle;resizable=0;points=[];" vertex="1" connectable="0" parent="1eZ8WCxtHh6D6gsWzAZl-18">
          <mxGeometry x="-0.5524" y="-4" relative="1" as="geometry">
            <mxPoint as="offset" />
          </mxGeometry>
        </mxCell>
        <mxCell id="1eZ8WCxtHh6D6gsWzAZl-19" style="edgeStyle=orthogonalEdgeStyle;rounded=0;orthogonalLoop=1;jettySize=auto;html=1;exitX=1;exitY=0.5;exitDx=0;exitDy=0;entryX=0.5;entryY=0;entryDx=0;entryDy=0;" edge="1" parent="1" source="1eZ8WCxtHh6D6gsWzAZl-7" target="1eZ8WCxtHh6D6gsWzAZl-9">
          <mxGeometry relative="1" as="geometry" />
        </mxCell>
        <mxCell id="1eZ8WCxtHh6D6gsWzAZl-32" value="sai" style="edgeLabel;html=1;align=center;verticalAlign=middle;resizable=0;points=[];" vertex="1" connectable="0" parent="1eZ8WCxtHh6D6gsWzAZl-19">
          <mxGeometry x="-0.2095" y="-4" relative="1" as="geometry">
            <mxPoint as="offset" />
          </mxGeometry>
        </mxCell>
        <mxCell id="1eZ8WCxtHh6D6gsWzAZl-7" value="&lt;span style=&quot;font-family: Arial, sans-serif; font-size: 16px; text-align: start; white-space-collapse: preserve; background-color: rgb(255, 255, 255);&quot;&gt;Δ &amp;lt; 0?&lt;/span&gt;" style="rhombus;whiteSpace=wrap;html=1;" vertex="1" parent="1">
          <mxGeometry x="480" y="480" width="120" height="80" as="geometry" />
        </mxCell>
        <mxCell id="1eZ8WCxtHh6D6gsWzAZl-27" style="edgeStyle=orthogonalEdgeStyle;rounded=0;orthogonalLoop=1;jettySize=auto;html=1;exitX=0;exitY=1;exitDx=0;exitDy=0;entryX=0;entryY=0.5;entryDx=0;entryDy=0;" edge="1" parent="1" source="1eZ8WCxtHh6D6gsWzAZl-8" target="1eZ8WCxtHh6D6gsWzAZl-26">
          <mxGeometry relative="1" as="geometry" />
        </mxCell>
        <mxCell id="1eZ8WCxtHh6D6gsWzAZl-8" value="vô nghiệm" style="shape=parallelogram;perimeter=parallelogramPerimeter;whiteSpace=wrap;html=1;fixedSize=1;" vertex="1" parent="1">
          <mxGeometry x="290" y="670" width="120" height="80" as="geometry" />
        </mxCell>
        <mxCell id="1eZ8WCxtHh6D6gsWzAZl-20" style="edgeStyle=orthogonalEdgeStyle;rounded=0;orthogonalLoop=1;jettySize=auto;html=1;exitX=0;exitY=0.5;exitDx=0;exitDy=0;entryX=0.5;entryY=0;entryDx=0;entryDy=0;" edge="1" parent="1" source="1eZ8WCxtHh6D6gsWzAZl-9" target="1eZ8WCxtHh6D6gsWzAZl-10">
          <mxGeometry relative="1" as="geometry" />
        </mxCell>
        <mxCell id="1eZ8WCxtHh6D6gsWzAZl-33" value="đúng" style="edgeLabel;html=1;align=center;verticalAlign=middle;resizable=0;points=[];" vertex="1" connectable="0" parent="1eZ8WCxtHh6D6gsWzAZl-20">
          <mxGeometry x="-0.219" y="-4" relative="1" as="geometry">
            <mxPoint as="offset" />
          </mxGeometry>
        </mxCell>
        <mxCell id="1eZ8WCxtHh6D6gsWzAZl-21" style="edgeStyle=orthogonalEdgeStyle;rounded=0;orthogonalLoop=1;jettySize=auto;html=1;exitX=1;exitY=0.5;exitDx=0;exitDy=0;entryX=0.5;entryY=0;entryDx=0;entryDy=0;" edge="1" parent="1" source="1eZ8WCxtHh6D6gsWzAZl-9" target="1eZ8WCxtHh6D6gsWzAZl-11">
          <mxGeometry relative="1" as="geometry" />
        </mxCell>
        <mxCell id="1eZ8WCxtHh6D6gsWzAZl-34" value="sai" style="edgeLabel;html=1;align=center;verticalAlign=middle;resizable=0;points=[];" vertex="1" connectable="0" parent="1eZ8WCxtHh6D6gsWzAZl-21">
          <mxGeometry x="-0.2952" relative="1" as="geometry">
            <mxPoint as="offset" />
          </mxGeometry>
        </mxCell>
        <mxCell id="1eZ8WCxtHh6D6gsWzAZl-9" value="&lt;span style=&quot;font-family: Arial, sans-serif; font-size: 16px; text-align: start; white-space-collapse: preserve; background-color: rgb(255, 255, 255);&quot;&gt;Δ = 0?&lt;/span&gt;" style="rhombus;whiteSpace=wrap;html=1;" vertex="1" parent="1">
          <mxGeometry x="640" y="560" width="120" height="80" as="geometry" />
        </mxCell>
        <mxCell id="1eZ8WCxtHh6D6gsWzAZl-24" style="edgeStyle=orthogonalEdgeStyle;rounded=0;orthogonalLoop=1;jettySize=auto;html=1;exitX=0.5;exitY=1;exitDx=0;exitDy=0;entryX=0.5;entryY=0;entryDx=0;entryDy=0;" edge="1" parent="1" source="1eZ8WCxtHh6D6gsWzAZl-10" target="1eZ8WCxtHh6D6gsWzAZl-22">
          <mxGeometry relative="1" as="geometry" />
        </mxCell>
        <mxCell id="1eZ8WCxtHh6D6gsWzAZl-10" value="&lt;span style=&quot;font-family: Arial, sans-serif; font-size: 16px; text-align: start; white-space-collapse: preserve; background-color: rgb(255, 255, 255);&quot;&gt;x = -b / (2a)&lt;/span&gt;" style="rounded=0;whiteSpace=wrap;html=1;" vertex="1" parent="1">
          <mxGeometry x="480" y="640" width="120" height="80" as="geometry" />
        </mxCell>
        <mxCell id="1eZ8WCxtHh6D6gsWzAZl-25" style="edgeStyle=orthogonalEdgeStyle;rounded=0;orthogonalLoop=1;jettySize=auto;html=1;exitX=0.5;exitY=1;exitDx=0;exitDy=0;entryX=0.75;entryY=1;entryDx=0;entryDy=0;" edge="1" parent="1" source="1eZ8WCxtHh6D6gsWzAZl-11" target="1eZ8WCxtHh6D6gsWzAZl-22">
          <mxGeometry relative="1" as="geometry" />
        </mxCell>
        <mxCell id="1eZ8WCxtHh6D6gsWzAZl-11" value="&lt;ul style=&quot;box-sizing: border-box; margin: 0px; padding: 0px 0px 0px 2rem; list-style: circle; font-family: Arial, sans-serif; font-size: 16px; text-align: left; white-space: pre; background-color: rgb(255, 255, 255); padding-inline-start: 48px;&quot;&gt;&lt;li style=&quot;box-sizing: border-box; margin: 0px; padding: 0px; background-color: transparent; font-size: 12pt; font-variant-numeric: normal; font-variant-east-asian: normal; font-variant-alternates: normal; font-variant-position: normal; font-variant-emoji: normal; list-style-type: disc; vertical-align: baseline;&quot; aria-level=&quot;4&quot; dir=&quot;ltr&quot;&gt;&lt;span style=&quot;box-sizing: border-box; margin: 0px; padding: 0px; background-color: transparent; font-size: 12pt;&quot;&gt;&lt;span style=&quot;box-sizing: border-box; margin: 0px; padding: 0px; font-variant-numeric: normal; font-variant-east-asian: normal; font-variant-alternates: normal; font-variant-position: normal; font-variant-emoji: normal; vertical-align: baseline; text-wrap-mode: wrap;&quot;&gt;x₁ = (-b + √Δ) / (2a)&lt;/span&gt;&lt;/span&gt;&lt;/li&gt;&lt;li style=&quot;box-sizing: border-box; margin: 0px; padding: 0px; background-color: transparent; font-size: 12pt; font-variant-numeric: normal; font-variant-east-asian: normal; font-variant-alternates: normal; font-variant-position: normal; font-variant-emoji: normal; list-style-type: disc; vertical-align: baseline;&quot; aria-level=&quot;4&quot; dir=&quot;ltr&quot;&gt;&lt;span style=&quot;box-sizing: border-box; margin: 0px; padding: 0px; background-color: transparent; font-size: 12pt;&quot;&gt;&lt;span style=&quot;box-sizing: border-box; margin: 0px; padding: 0px; font-variant-numeric: normal; font-variant-east-asian: normal; font-variant-alternates: normal; font-variant-position: normal; font-variant-emoji: normal; vertical-align: baseline; text-wrap-mode: wrap;&quot;&gt;x₂ = (-b - √Δ) / (2a)&lt;/span&gt;&lt;/span&gt;&lt;/li&gt;&lt;/ul&gt;" style="rounded=0;whiteSpace=wrap;html=1;" vertex="1" parent="1">
          <mxGeometry x="800" y="640" width="120" height="80" as="geometry" />
        </mxCell>
        <mxCell id="1eZ8WCxtHh6D6gsWzAZl-22" value="Xuất nghiệm" style="shape=parallelogram;perimeter=parallelogramPerimeter;whiteSpace=wrap;html=1;fixedSize=1;" vertex="1" parent="1">
          <mxGeometry x="400" y="750" width="120" height="60" as="geometry" />
        </mxCell>
        <mxCell id="1eZ8WCxtHh6D6gsWzAZl-26" value="Kết thúc&amp;nbsp;" style="ellipse;whiteSpace=wrap;html=1;" vertex="1" parent="1">
          <mxGeometry x="370" y="880" width="120" height="80" as="geometry" />
        </mxCell>
        <mxCell id="1eZ8WCxtHh6D6gsWzAZl-28" style="edgeStyle=orthogonalEdgeStyle;rounded=0;orthogonalLoop=1;jettySize=auto;html=1;exitX=0.5;exitY=1;exitDx=0;exitDy=0;entryX=0.689;entryY=0.046;entryDx=0;entryDy=0;entryPerimeter=0;" edge="1" parent="1" source="1eZ8WCxtHh6D6gsWzAZl-22" target="1eZ8WCxtHh6D6gsWzAZl-26">
          <mxGeometry relative="1" as="geometry" />
        </mxCell>
      </root>
    </mxGraphModel>
  </diagram>
</mxfile>
